Coordinates
nRows=10
nColumns=24

# SIMM Motion File Header:
name Coordinates
datacolumns 24
datarows 10
otherdata 1
range 1.18067000000000010000 1.18967000000000000000
endheader
time	pelvis_tx	pelvis_ty	pelvis_tz	pelvis_tilt	pelvis_list	pelvis_rotation	hip_flexion_r	hip_adduction_r	hip_rotation_r	knee_angle_r	ankle_angle_r	subtalar_angle_r	mtp_angle_r	hip_flexion_l	hip_adduction_l	hip_rotation_l	knee_angle_l	ankle_angle_l	subtalar_angle_l	mtp_angle_l	lumbar_extension	lumbar_bending	lumbar_rotation
      1.18067000000000010000	     -1.51221225120475040000	      0.97136913335727748000	      0.19995849961285420000	      5.11004243618787330000	      0.48823343932037866000	      5.51519637439070110000	     -1.19588549623535220000	      1.84381259634188050000	      2.34760340790927470000	     -8.62389344483248980000	      4.70654633221117000000	      0.00000000000009356713	     -0.00000000000052717895	     12.09656100017901400000	     -1.05394239898050680000	      4.88072854820313220000	    -46.80717925564034900000	      7.01043191684181100000	     -0.00000000000015709826	      0.00000000000036480474	    -10.86219144169095300000	      3.61803011837909110000	     -0.76688236858413317000
      1.18167000000000000000	     -1.51164332449232970000	      0.97137867060847050000	      0.20001501906561339000	      5.11060719874589520000	      0.49731156753384254000	      5.48583692534221260000	     -1.24835334433460600000	      1.83711003468218960000	      2.38177907518870850000	     -8.59710214207082930000	      4.72866269136178200000	      0.00000000000009379632	     -0.00000000000052827192	     12.15199803877667700000	     -1.03356970471865580000	      4.87035710125778820000	    -46.68232868029173200000	      7.07511130183273270000	     -0.00000000000015736632	      0.00000000000036605476	    -10.87104264729295600000	      3.60073421045543850000	     -0.73369663923374639000
      1.18267000000000010000	     -1.51107439431967290000	      0.97138775655691489000	      0.20007148562561738000	      5.11111857829456450000	      0.50630287389754036000	      5.45639438478340730000	     -1.30074842799634700000	      1.83044126872319460000	      2.41612076131077250000	     -8.57030279989790780000	      4.75055628005620450000	      0.00000000000009401958	     -0.00000000000052935735	     12.20730160299429000000	     -1.01328914585589520000	      4.86007935294794270000	    -46.55691627183221500000	      7.13942356252646790000	     -0.00000000000015762845	      0.00000000000036730080	    -10.87982194910793900000	      3.58350850474826730000	     -0.70054970344725942000
      1.18367000000000000000	     -1.51050544159918280000	      0.97139636375969896000	      0.20012789460254091000	      5.11155302501037310000	      0.51520510634620220000	      5.42687261025558950000	     -1.35304064316772400000	      1.82380829653704370000	      2.45062246786295250000	     -8.54351510021072790000	      4.77230344648909810000	      0.00000000000009424529	     -0.00000000000053046515	     12.26249676479186900000	     -0.99310450304981446000	      4.84988576776521190000	    -46.43095140383749700000	      7.20328714370130020000	     -0.00000000000015788769	      0.00000000000036853901	    -10.88849911584351700000	      3.56635534142285860000	     -0.66745353542240471000
      1.18467000000000010000	     -1.50993642123519130000	      0.97140353472550200000	      0.20018413083022318000	      5.11175667322759250000	      0.52384011704975986000	      5.39711313382070480000	     -1.40502425286805080000	      1.81728270566941990000	      2.48560423570551770000	     -8.51676232798074650000	      4.79361134613741860000	      0.00000000000009447835	     -0.00000000000053164004	     12.31736671932939200000	     -0.97320760841375931000	      4.83994467196381790000	    -46.30332915723705900000	      7.26580468631946100000	     -0.00000000000015813826	      0.00000000000036975372	    -10.89686987734089600000	      3.54941980524272750000	     -0.63450967068241926000
      1.18567000000000000000	     -1.50936740087120010000	      0.97141070569130505000	      0.20024036705790546000	      5.11196032144481280000	      0.53247512775331562000	      5.36735365738582630000	     -1.45700786256836580000	      1.81075711480179780000	      2.52058600354807490000	     -8.49000955575077220000	      4.81491924578573460000	      0.00000000000009471141	     -0.00000000000053281493	     12.37223667386690500000	     -0.95331071377770860000	      4.83000357616242580000	    -46.17570691063664900000	      7.32832222893760750000	     -0.00000000000015838883	      0.00000000000037096843	    -10.90524063883827200000	      3.53248426906259950000	     -0.60156580594244125000
      1.18667000000000010000	     -1.50879825964607670000	      0.97141648270861292000	      0.20029643027471200000	      5.11191848116158990000	      0.54086047395026604000	      5.33737588283359350000	     -1.50866180825797550000	      1.80433308780265690000	      2.55600917479939140000	     -8.46334530701355450000	      4.83623289186037300000	      0.00000000000009496249	     -0.00000000000053401754	     12.42681899243169300000	     -0.93368983121549132000	      4.82027721640551210000	    -46.04653076739091900000	      7.38939253660583970000	     -0.00000000000015863946	      0.00000000000037217225	    -10.91328216730535800000	      3.51575350493213930000	     -0.56879572504032616000
      1.18767000000000000000	     -1.50822907813390960000	      0.97142179507642235000	      0.20035243582122667000	      5.11179481137821860000	      0.54916259864501071000	      5.30732534224225190000	     -1.56020586594399950000	      1.79794291542634580000	      2.59157948052028700000	     -8.43671056610726210000	      4.85754845341044470000	      0.00000000000009521958	     -0.00000000000053522937	     12.48130543233888900000	     -0.91416095267789277000	      4.81062243533009590000	    -45.91683665859677900000	      7.44998043262407260000	     -0.00000000000015889012	      0.00000000000037337244	    -10.92121395142901000000	      3.49909099815157450000	     -0.53608357208417623000
      1.18867000000000010000	     -1.50765976675378340000	      0.97142620729327078000	      0.20040830676682975000	      5.11152700934942140000	      0.55730932679081657000	      5.27714597407566630000	     -1.61155777591406800000	      1.79161462236026910000	      2.62741367808906960000	     -8.41014888750744300000	      4.87913173074381130000	      0.00000000000009548738	     -0.00000000000053646701	     12.53556496748818600000	     -0.89481024223132555000	      4.80110245230545910000	    -45.78610284075911400000	      7.50961043114092770000	     -0.00000000000015914134	      0.00000000000037457454	    -10.92894087000370200000	      3.48255943820988370000	     -0.50351993539720441000
      1.18967000000000000000	     -1.50709032550569840000	      0.97142971935915812000	      0.20046404311152130000	      5.11111507507519750000	      0.56530065838767951000	      5.24683777833385180000	     -1.66271753816815780000	      1.78534820860443010000	      2.66351176750572450000	     -8.38366027121410620000	      4.90098272386046310000	      0.00000000000009576588	     -0.00000000000053773043	     12.58959759787955900000	     -0.87563769987579887000	      4.79171726733160770000	    -45.65432931387796600000	      7.56828253215637400000	     -0.00000000000015939313	      0.00000000000037577857	    -10.93646292302942800000	      3.46615882510707520000	     -0.47110481497942569000
